<?xml version="1.0" standalone="no"?><!DOCTYPE svg PUBLIC "-//W3C//DTD SVG 1.1//EN" "http://www.w3.org/Graphics/SVG/1.1/DTD/svg11.dtd"><svg class="icon" width="200px" height="200.00px" viewBox="0 0 1024 1024" version="1.1" xmlns="http://www.w3.org/2000/svg"><path d="M660.704 628.352a19.2 19.2 0 0 0 5.92-37.888l-136.992-21.216-7.424 37.664 138.496 21.44z" fill="#000000" /><path d="M896 742.336l29.536-189.312a57.536 57.536 0 0 0-48.192-65.6l-228.096-35.328a57.856 57.856 0 0 0-42.88 10.368c-12.352 8.96-20.64 22.496-22.976 37.536l-5.952 37.888 37.984 5.92 5.952-37.888a19.2 19.2 0 0 1 21.952-15.968l228.096 35.296a19.168 19.168 0 0 1 16 21.856l-29.472 189.312a19.264 19.264 0 0 1-21.952 15.968l-228.16-35.296a19.264 19.264 0 0 1-16-21.856l5.92-37.824-38.08-5.888-5.888 37.824c-2.368 15.04 1.376 30.4 10.432 42.72 9.024 12.32 22.624 20.512 37.76 22.848l228.064 35.328c15.104 2.368 30.56-1.376 42.88-10.368 12.384-8.96 20.64-22.496 22.976-37.536H896z m-540.032-151.36a19.104 19.104 0 1 0-11.776 31.04c4.352 5.28 11.2 7.872 17.984 6.72l136.768-22.24-4.672-38.08-138.24 22.464-0.064 0.064z" fill="#000000" /><path d="M469.536 688.928l-6.24-37.824-37.984 6.208 6.24 37.824a19.072 19.072 0 0 1-15.904 21.952l-227.84 37.056a19.2 19.2 0 0 1-22.016-15.84l-31.04-189.056a19.2 19.2 0 0 1 15.904-21.984l227.84-37.056a19.264 19.264 0 0 1 22.016 15.84l6.24 37.792 37.984-6.176-6.24-37.824a57.408 57.408 0 0 0-23.232-37.376 57.856 57.856 0 0 0-43.008-10.08l-227.84 37.12a57.696 57.696 0 0 0-37.536 23.136c-8.96 12.352-12.576 27.744-10.112 42.784l31.04 189.12a57.6 57.6 0 0 0 66.24 47.424l227.84-37.056a57.696 57.696 0 0 0 37.568-23.168c8.928-12.384 12.544-27.776 10.08-42.816z m-101.344-319.328L318.08 322.272a13.312 13.312 0 0 1 5.408-22.496 13.44 13.44 0 0 1 13.024 3.104l50.08 47.36a13.312 13.312 0 0 1-5.408 22.464 13.44 13.44 0 0 1-13.024-3.104z m267.776-2.464a13.344 13.344 0 0 1-0.544-18.912l47.52-49.824a13.44 13.44 0 0 1 18.432 0 13.312 13.312 0 0 1 1.056 18.336l-47.552 49.856a13.44 13.44 0 0 1-18.976 0.544h0.064z m-129.6-18.752a12.992 12.992 0 0 1-4.32-9.28l-1.952-68.576c0-7.488 6.016-13.536 13.504-13.6 7.52-0.32 13.856 5.44 14.24 12.864l1.92 68.544a13.632 13.632 0 0 1-13.536 13.664 14.208 14.208 0 0 1-9.92-3.68l0.064 0.064z" fill="#000000" /></svg>